# Blender v2.79 (sub 0) OBJ File: 'netherite horns.blend'
# www.blender.org
mtllib horns.mtl
o Cube_Cube.001
v 0.146745 -0.216061 0.172745
v 0.242091 0.081534 0.005691
v 0.161840 -0.294098 0.042342
v 0.257186 0.003496 -0.124712
v 0.293053 -0.244033 0.206421
v 0.388400 0.053562 0.039367
v 0.308148 -0.322071 0.076017
v 0.403495 -0.024476 -0.091036
v 0.253111 -0.028916 0.031940
v 0.200439 0.256981 -0.000225
v 0.266845 -0.040423 -0.092836
v 0.214173 0.245472 -0.125001
v 0.376343 -0.004935 0.043292
v 0.323671 0.280962 0.011128
v 0.390077 -0.016443 -0.081484
v 0.337405 0.269453 -0.113648
v -0.146745 -0.216061 0.172745
v -0.242091 0.081534 0.005691
v -0.161840 -0.294098 0.042342
v -0.257186 0.003496 -0.124712
v -0.293053 -0.244033 0.206421
v -0.388400 0.053562 0.039367
v -0.308148 -0.322071 0.076017
v -0.403495 -0.024476 -0.091036
v -0.253111 -0.028916 0.031940
v -0.200439 0.256981 -0.000225
v -0.266845 -0.040423 -0.092836
v -0.214173 0.245472 -0.125001
v -0.376343 -0.004935 0.043292
v -0.323671 0.280962 0.011128
v -0.390077 -0.016443 -0.081484
v -0.337405 0.269453 -0.113648
vt 0.085938 -0.000000
vt 0.085938 0.156250
vt 0.007812 0.156250
vt 0.007812 0.000000
vt 0.164062 0.000000
vt 0.164062 0.156250
vt 0.085938 0.156250
vt 0.085938 0.000000
vt 0.007812 0.156250
vt 0.007812 -0.000000
vt 0.164062 -0.000000
vt 0.164062 0.156250
vt 0.179688 0.156250
vt 0.335938 0.156250
vt 0.335938 0.000000
vt 0.179688 0.000000
vt 0.085938 -0.000000
vt 0.164062 0.078125
vt 0.007812 0.078125
vt 0.085938 0.156250
vt 0.085938 0.289062
vt 0.007812 0.289062
vt 0.007812 0.156250
vt 0.164062 0.156250
vt 0.164062 0.289062
vt 0.085938 0.289062
vt 0.085938 0.156250
vt 0.007812 0.289062
vt 0.007812 0.156250
vt 0.164062 0.156250
vt 0.164062 0.289062
vt 0.633422 0.674383
vt 0.695038 0.668706
vt 0.688171 0.606319
vt 0.626556 0.611995
vt 0.335938 0.156250
vt 0.179688 0.156250
vt 0.179688 -0.000000
vt 0.335938 0.000000
vt 0.085938 0.000000
vt 0.007812 0.000000
vt 0.007812 0.156250
vt 0.085938 0.156250
vt 0.164062 0.000000
vt 0.085938 0.000000
vt 0.085938 0.156250
vt 0.164062 0.156250
vt 0.164062 0.000000
vt 0.164062 0.156250
vt 0.007812 0.000000
vt 0.007812 0.156250
vt 0.335938 0.156250
vt 0.335938 0.000000
vt 0.179688 0.000000
vt 0.179688 0.156250
vt 0.085938 -0.000000
vt 0.164062 0.078125
vt 0.007812 0.078125
vt 0.085938 0.156250
vt 0.007812 0.156250
vt 0.007812 0.289062
vt 0.085938 0.289062
vt 0.164062 0.156250
vt 0.085938 0.156250
vt 0.085938 0.289062
vt 0.164062 0.289062
vt 0.164062 0.156250
vt 0.164062 0.289062
vt 0.007812 0.156250
vt 0.007812 0.289062
vt 0.366578 0.674383
vt 0.373444 0.611995
vt 0.311829 0.606319
vt 0.304962 0.668706
vt 0.179688 0.156250
vt 0.179688 0.000000
vt 0.335938 0.000000
vt 0.335938 0.156250
vn -0.9580 0.1832 -0.2205
vn 0.0988 -0.5110 -0.8539
vn 0.9580 -0.1832 0.2205
vn -0.0988 0.5110 0.8539
vn -0.2691 -0.8398 0.4714
vn 0.2691 0.8398 -0.4714
vn -0.9776 -0.1902 -0.0901
vn 0.1090 -0.0913 -0.9898
vn 0.9776 0.1902 0.0901
vn -0.1090 0.0913 0.9898
vn 0.1801 -0.9775 0.1100
vn -0.1801 0.9775 -0.1100
vn 0.9580 0.1832 -0.2205
vn -0.0988 -0.5110 -0.8539
vn -0.9580 -0.1832 0.2205
vn 0.0988 0.5110 0.8539
vn 0.2691 -0.8398 0.4714
vn -0.2691 0.8398 -0.4714
vn 0.9776 -0.1902 -0.0901
vn -0.1090 -0.0913 -0.9898
vn -0.9776 0.1902 0.0901
vn 0.1090 0.0913 0.9898
vn -0.1801 -0.9775 0.1100
vn 0.1801 0.9775 -0.1100
usemtl None
s off
f 1/1/1 2/2/1 4/3/1 3/4/1
f 3/5/2 4/6/2 8/7/2 7/8/2
f 7/8/3 8/7/3 6/9/3 5/10/3
f 5/11/4 6/12/4 2/2/4 1/1/4
f 3/13/5 7/14/5 5/15/5 1/16/5
f 8/17/6 4/18/6 2/2/6 6/19/6
f 9/20/7 10/21/7 12/22/7 11/23/7
f 11/24/8 12/25/8 16/26/8 15/27/8
f 15/27/9 16/26/9 14/28/9 13/29/9
f 13/30/10 14/31/10 10/21/10 9/20/10
f 11/32/11 15/33/11 13/34/11 9/35/11
f 16/36/12 12/37/12 10/38/12 14/39/12
f 17/40/13 19/41/13 20/42/13 18/43/13
f 19/44/14 23/45/14 24/46/14 20/47/14
f 23/45/15 21/48/15 22/49/15 24/46/15
f 21/50/16 17/40/16 18/43/16 22/51/16
f 19/52/17 17/53/17 21/54/17 23/55/17
f 24/56/18 22/57/18 18/43/18 20/58/18
f 25/59/19 27/60/19 28/61/19 26/62/19
f 27/63/20 31/64/20 32/65/20 28/66/20
f 31/64/21 29/67/21 30/68/21 32/65/21
f 29/69/22 25/59/22 26/62/22 30/70/22
f 27/71/23 25/72/23 29/73/23 31/74/23
f 32/75/24 30/76/24 26/77/24 28/78/24
