# Blender v2.79 (sub 0) OBJ File: ''
# www.blender.org
mtllib tormented_mind.mtl
o Cube_Cube.001
v -0.027843 -0.010034 -0.185249
v -0.027843 -0.080549 0.141286
v -0.027843 0.002910 0.154470
v -0.027843 0.071765 -0.164880
v 0.027843 0.002910 0.154470
v 0.027843 0.071765 -0.164880
v 0.027843 -0.080549 0.141286
v 0.027843 -0.010034 -0.185249
v -0.027843 -0.080587 0.141185
v -0.027843 -0.120397 0.473250
v -0.027843 -0.042486 0.477401
v -0.027843 0.002969 0.154525
v 0.027843 -0.042486 0.477401
v 0.027843 0.002969 0.154525
v 0.027843 -0.120397 0.473250
v 0.027843 -0.080587 0.141185
v -0.027843 -0.120281 0.473368
v -0.027843 -0.134595 0.807014
v -0.027843 -0.002297 0.806850
v -0.027843 -0.042480 0.477413
v 0.027843 -0.002297 0.806850
v 0.027843 -0.042480 0.477413
v 0.027843 -0.134595 0.807014
v 0.027843 -0.120281 0.473368
v -0.034235 0.214181 -1.135499
v -0.027843 0.170963 -0.813648
v -0.027843 0.309873 -0.790148
v -0.027843 0.387698 -1.119659
v 0.027843 0.309873 -0.790148
v 0.027843 0.387698 -1.119659
v 0.027843 0.170963 -0.813648
v 0.034235 0.214181 -1.135499
v -0.027843 0.171020 -0.813595
v -0.027843 0.090434 -0.497036
v -0.027843 0.182437 -0.474189
v -0.027843 0.309919 -0.790062
v 0.027843 0.182437 -0.474189
v 0.027843 0.309919 -0.790062
v 0.027843 0.090434 -0.497036
v 0.027843 0.171020 -0.813595
v -0.027843 0.090410 -0.496873
v -0.027843 -0.009867 -0.185234
v -0.027843 0.071685 -0.164828
v -0.027843 0.182541 -0.474232
v 0.027843 0.071685 -0.164828
v 0.027843 0.182541 -0.474232
v 0.027843 -0.009867 -0.185234
v 0.027843 0.090410 -0.496873
v -0.039839 0.210655 -1.451208
v -0.034235 0.213629 -1.135386
v -0.027843 0.387503 -1.119820
v -0.027843 0.390761 -1.452675
v 0.027843 0.387503 -1.119820
v 0.027843 0.390761 -1.452675
v 0.034235 0.213629 -1.135386
v 0.039839 0.210655 -1.451208
v -0.027843 0.206460 -1.784776
v -0.039839 0.210640 -1.451156
v -0.027843 0.390745 -1.452623
v -0.027843 0.323538 -1.843776
v 0.027843 0.390745 -1.452623
v 0.027843 0.323538 -1.843776
v 0.039839 0.210640 -1.451156
v 0.027843 0.206460 -1.784776
v 0.000057 -0.496378 -1.250250
v 0.000057 -0.431976 -0.852687
v -0.000057 -0.431976 -0.852687
v -0.000057 -0.496378 -1.250250
v 0.027843 -0.277866 -1.292988
v 0.027843 -0.236392 -0.975062
v -0.027843 -0.236392 -0.975062
v -0.027843 -0.277866 -1.292988
v -0.027843 0.206250 -1.784354
v 0.027843 0.206250 -1.784354
v 0.027843 0.064160 -1.730477
v -0.027843 0.064160 -1.730477
v 0.027843 0.223245 -1.650419
v 0.027843 0.044267 -1.684662
v -0.027843 0.044267 -1.684662
v -0.027843 0.223245 -1.650419
v 0.027843 -0.093630 -1.710712
v -0.027843 -0.093630 -1.710712
v -0.027843 -0.093527 -1.710945
v 0.027843 -0.093527 -1.710945
v -0.027843 0.044275 -1.684662
v -0.027843 0.064160 -1.730477
v 0.027843 0.064160 -1.730477
v 0.027843 0.044275 -1.684662
v 0.027843 -0.236038 -0.975290
v 0.000057 -0.432396 -0.852857
v -0.000057 -0.432396 -0.852857
v -0.027843 -0.236038 -0.975290
v 0.027843 -0.210004 -0.915212
v -0.027843 -0.210004 -0.915212
v -0.000057 -0.372449 -0.711258
v 0.000057 -0.372449 -0.711258
v 0.027843 -0.095773 -1.064589
v -0.027843 -0.095773 -1.064589
v -0.027843 -0.094183 -1.063272
v 0.027843 -0.094183 -1.063272
v 0.027843 -0.235957 -0.974967
v 0.027843 -0.210088 -0.915525
v 0.025171 -0.222748 -0.899470
v -0.025171 -0.222748 -0.899470
v -0.000057 -0.264703 -0.590295
v 0.000057 -0.264703 -0.590295
v -0.000057 -0.372185 -0.711526
v 0.000057 -0.372185 -0.711526
v -0.025171 -0.223288 -0.899484
v 0.025171 -0.223288 -0.899484
v -0.027843 -0.277284 -1.293001
v -0.027843 0.230567 -1.394390
v -0.027843 0.225039 -1.574099
v -0.027843 -0.283029 -1.536701
v 0.000057 -0.496134 -1.250243
v -0.000057 -0.496134 -1.250243
v -0.000057 -0.501662 -1.520636
v 0.000057 -0.501662 -1.520636
v 0.027843 -0.277433 -1.293114
v 0.027843 -0.282961 -1.536726
v -0.027843 -0.261130 -1.743009
v 0.027843 -0.261130 -1.743009
v 0.000057 -0.470347 -1.782963
v -0.000057 -0.470347 -1.782963
v 0.027843 -0.282630 -1.536607
v 0.000057 -0.501676 -1.520691
v -0.027843 -0.282878 -1.536713
v -0.027843 0.225039 -1.574099
v -0.027843 0.223033 -1.650550
v -0.027843 -0.261400 -1.742795
v -0.000057 -0.501676 -1.520691
v 0.020707 -0.314494 -1.753597
v -0.020707 -0.314494 -1.753597
v -0.020707 -0.314665 -1.753408
v 0.020707 -0.314665 -1.753408
v -0.000057 -0.455611 -1.842036
v -0.000057 -0.470527 -1.782947
v 0.000057 -0.470527 -1.782947
v 0.000057 -0.455611 -1.842036
v 0.027498 0.095457 -1.181474
v -0.028187 0.095457 -1.181474
v -0.028187 0.095173 -1.181871
v 0.027498 0.095173 -1.181871
v -0.028187 0.216415 -1.162556
v -0.028187 0.215616 -1.256430
v 0.027498 0.215616 -1.256430
v 0.027498 0.216415 -1.162556
v 0.027498 0.209800 -1.094471
v -0.028187 0.209800 -1.094471
v -0.028187 0.164452 -1.169423
v 0.027498 0.164452 -1.169423
v 0.027498 0.163858 -1.170389
v 0.027498 0.216415 -1.162556
v -0.028187 0.163858 -1.170389
v -0.028187 0.216415 -1.162556
v 0.027843 -0.001929 0.808051
v -0.027843 -0.001929 0.808051
v -0.027843 -0.119449 1.197638
v 0.027843 -0.119449 1.197638
v 0.027843 -0.134595 0.807014
v 0.027843 -0.002297 0.806579
v -0.027843 -0.002297 0.806579
v -0.027843 -0.134595 0.807014
v -0.027843 -0.277433 -1.293114
v -0.027843 -0.282961 -1.536726
v -0.027843 -0.282630 -1.536607
v -0.027843 -0.210088 -0.915525
v -0.027843 -0.235957 -0.974967
v 0.027843 0.222509 -1.260736
v -0.027843 0.222509 -1.260736
v -0.027843 -0.236239 -0.974986
v 0.027843 -0.236239 -0.974986
v 0.027843 0.230567 -1.394390
v 0.027843 -0.277959 -1.292962
v -0.027843 0.230567 -1.394390
v -0.027843 -0.277959 -1.292962
v 0.027843 -0.277284 -1.293001
v 0.027843 0.230567 -1.394390
v 0.027843 0.225039 -1.574099
v 0.027843 -0.283029 -1.536701
v 0.027843 -0.282878 -1.536713
v 0.027843 0.225039 -1.574099
v 0.027843 0.223033 -1.650550
v 0.027843 -0.261400 -1.742795
vt 0.171875 0.804688
vt 0.062500 0.804688
vt 0.062500 0.835938
vt 0.171875 0.835938
vt 0.062500 0.804688
vt 0.171875 0.804688
vt 0.171875 0.835938
vt 0.062500 0.835938
vt 0.062500 0.804688
vt 0.171875 0.804688
vt 0.062500 0.835938
vt 0.171875 0.835938
vt 0.171875 0.835937
vt 0.062500 0.835937
vt 0.062500 0.804687
vt 0.171875 0.804687
vt 0.171875 0.835937
vt 0.062500 0.835937
vt 0.062500 0.804687
vt 0.171875 0.804687
vt 0.062500 0.835937
vt 0.171875 0.835937
vt 0.171875 0.804687
vt 0.062500 0.804687
vt 0.332894 0.964863
vt 0.332894 0.964863
vt 0.332894 0.964863
vt 0.332894 0.964863
vt 0.332894 0.964863
vt 0.332894 0.964863
vt 0.332894 0.964863
vt 0.332894 0.964863
vt 0.332894 0.964863
vt 0.332894 0.964863
vt 0.332894 0.964863
vt 0.332894 0.964863
vt 0.332894 0.964863
vt 0.332894 0.964863
vt 0.332894 0.964863
vt 0.332894 0.964863
vt 0.332894 0.964863
vt 0.332894 0.964863
vt 0.332894 0.964863
vt 0.332894 0.964863
vt 0.332894 0.964863
vt 0.332894 0.964863
vt 0.332894 0.964863
vt 0.332894 0.964863
vt 0.171875 0.804688
vt 0.062500 0.804688
vt 0.062500 0.835938
vt 0.171875 0.835938
vt 0.062500 0.804688
vt 0.171875 0.804688
vt 0.171875 0.835938
vt 0.062500 0.835938
vt 0.062500 0.804688
vt 0.171875 0.804688
vt 0.062500 0.835938
vt 0.171875 0.835938
vt 0.332894 0.964863
vt 0.332894 0.964863
vt 0.332894 0.964863
vt 0.332894 0.964863
vt 0.332894 0.964863
vt 0.332894 0.964863
vt 0.332894 0.964863
vt 0.332894 0.964863
vt 0.300296 0.966195
vt 0.300296 0.966195
vt 0.300296 0.966195
vt 0.300296 0.966195
vt 0.332894 0.964863
vt 0.332894 0.964863
vt 0.332894 0.964863
vt 0.332894 0.964863
vt 0.332894 0.964863
vt 0.332894 0.964863
vt 0.332894 0.964863
vt 0.332894 0.964863
vt 0.300296 0.966195
vt 0.300296 0.966195
vt 0.300296 0.966195
vt 0.300296 0.966195
vt 0.393260 0.934284
vt 0.393260 0.934284
vt 0.393260 0.934284
vt 0.393260 0.934284
vt 0.600973 0.945159
vt 0.759523 0.945267
vt 0.821123 0.921875
vt 0.622342 0.921875
vt 0.759523 0.945267
vt 0.601089 0.945339
vt 0.622458 0.921875
vt 0.821240 0.921875
vt 0.608989 0.968698
vt 0.608989 0.945255
vt 0.537944 0.945255
vt 0.537944 0.968698
vt 0.375023 0.968130
vt 0.464746 0.968130
vt 0.454799 0.968130
vt 0.383754 0.968130
vt 0.464746 0.968130
vt 0.375023 0.968130
vt 0.383754 0.968130
vt 0.454799 0.968130
vt 0.650508 0.945312
vt 0.650508 0.968750
vt 0.650391 0.968750
vt 0.650391 0.945312
vt 0.464742 0.968130
vt 0.454799 0.968130
vt 0.533643 0.968130
vt 0.533694 0.968130
vt 0.537944 0.968698
vt 0.537944 0.945255
vt 0.459100 0.945255
vt 0.459100 0.968698
vt 0.454799 0.968130
vt 0.464742 0.968130
vt 0.533694 0.968130
vt 0.533643 0.968130
vt 0.393260 0.934284
vt 0.393260 0.934284
vt 0.393260 0.934284
vt 0.393260 0.934284
vt 0.377376 0.922963
vt 0.377376 0.944697
vt 0.456977 0.933852
vt 0.456977 0.933808
vt 0.759523 0.945267
vt 0.820211 0.921875
vt 0.891011 0.921809
vt 0.792969 0.945312
vt 0.457977 0.945255
vt 0.457977 0.968698
vt 0.458772 0.968698
vt 0.458772 0.945255
vt 0.588700 0.945312
vt 0.518608 0.945557
vt 0.517813 0.945557
vt 0.575766 0.945557
vt 0.393260 0.934284
vt 0.393260 0.934284
vt 0.443164 0.934334
vt 0.442121 0.934334
vt 0.442642 0.940739
vt 0.442644 0.940739
vt 0.393260 0.934284
vt 0.393260 0.934284
vt 0.393260 0.934284
vt 0.393260 0.934284
vt 0.792969 0.945312
vt 0.890877 0.921941
vt 0.951492 0.945312
vt 0.792969 0.945312
vt 0.393260 0.934284
vt 0.393260 0.934284
vt 0.393260 0.934284
vt 0.393260 0.934284
vt 0.890877 0.921941
vt 0.792969 0.945312
vt 0.792969 0.945312
vt 0.951492 0.945789
vt 0.627332 0.945312
vt 0.375000 0.945312
vt 0.375000 0.968750
vt 0.630205 0.968750
vt 0.393260 0.934284
vt 0.393260 0.934284
vt 0.393260 0.934284
vt 0.393260 0.934284
vt 0.600910 0.945376
vt 0.622345 0.921875
vt 0.487148 0.921875
vt 0.479104 0.945230
vt 0.457331 0.944697
vt 0.457331 0.922963
vt 0.375676 0.933808
vt 0.375676 0.933852
vt 0.479163 0.945312
vt 0.487121 0.921875
vt 0.382809 0.921875
vt 0.375000 0.945312
vt 0.629220 0.945315
vt 0.375013 0.945315
vt 0.375013 0.968750
vt 0.617570 0.968750
vt 0.393260 0.934284
vt 0.393260 0.934284
vt 0.393260 0.934284
vt 0.393260 0.934284
vt 0.510353 0.623201
vt 0.489647 0.623201
vt 0.489647 0.623296
vt 0.510353 0.623296
vt 0.375000 0.921875
vt 0.382817 0.921875
vt 0.375069 0.945270
vt 0.374974 0.945355
vt 0.382816 0.921875
vt 0.375000 0.921875
vt 0.374974 0.945355
vt 0.375069 0.945270
vt 0.381428 0.933808
vt 0.381428 0.933852
vt 0.436504 0.941912
vt 0.436504 0.925748
vt 0.393260 0.934284
vt 0.393260 0.934284
vt 0.393260 0.934284
vt 0.393260 0.934284
vt 0.513749 0.909263
vt 0.485907 0.909263
vt 0.485907 0.909064
vt 0.513749 0.909064
vt 0.376069 0.945557
vt 0.376469 0.945557
vt 0.423135 0.945557
vt 0.422993 0.945557
vt 0.376469 0.945557
vt 0.376069 0.945557
vt 0.422993 0.945557
vt 0.423135 0.945557
vt 0.614071 0.945428
vt 0.614071 0.968870
vt 0.553592 0.968870
vt 0.553592 0.945428
vt 0.443004 0.945428
vt 0.443004 0.968870
vt 0.405528 0.968870
vt 0.405528 0.945428
vt 0.388793 0.945557
vt 0.376069 0.945557
vt 0.379377 0.945557
vt 0.388496 0.945557
vt 0.405044 0.968870
vt 0.405044 0.945428
vt 0.376069 0.945557
vt 0.388793 0.945557
vt 0.388496 0.945557
vt 0.379377 0.945557
vt 0.332894 0.964863
vt 0.332894 0.964863
vt 0.332894 0.964863
vt 0.332894 0.964863
vt 0.332894 0.964863
vt 0.332894 0.964863
vt 0.332894 0.964863
vt 0.332894 0.964863
vt 0.622345 0.921875
vt 0.600910 0.945376
vt 0.479104 0.945230
vt 0.487148 0.921875
vt 0.487121 0.921875
vt 0.479163 0.945312
vt 0.375000 0.945312
vt 0.382809 0.921875
vt 0.820211 0.921875
vt 0.759523 0.945267
vt 0.792969 0.945312
vt 0.891011 0.921809
vt 0.458603 0.945255
vt 0.458603 0.968698
vt 0.532477 0.968698
vt 0.532477 0.945255
vt 0.518608 0.945557
vt 0.588700 0.945312
vt 0.575766 0.945557
vt 0.517813 0.945557
vt 0.617118 0.945255
vt 0.617118 0.968698
vt 0.387744 0.968698
vt 0.387744 0.945255
vt 0.375000 0.968750
vt 0.375000 0.945312
vt 0.588841 0.945312
vt 0.609701 0.968750
vt 0.486079 0.615283
vt 0.513921 0.615283
vt 0.513921 0.361021
vt 0.486079 0.361021
vt 0.375000 0.945312
vt 0.375000 0.968750
vt 0.609701 0.968750
vt 0.588841 0.945312
vt 0.486079 0.615283
vt 0.486079 0.361358
vt 0.513921 0.361358
vt 0.513921 0.615283
vt 0.486079 0.612520
vt 0.513921 0.612520
vt 0.513921 0.358486
vt 0.486079 0.358486
vt 0.375000 0.945312
vt 0.627332 0.945312
vt 0.630205 0.968750
vt 0.375000 0.968750
vt 0.486079 0.612520
vt 0.486079 0.358561
vt 0.513921 0.358561
vt 0.513921 0.612520
vt 0.617380 0.968698
vt 0.617380 0.945255
vt 0.375000 0.945255
vt 0.375000 0.968698
vt 0.375013 0.945315
vt 0.629220 0.945315
vt 0.617570 0.968750
vt 0.375013 0.968750
vt 0.513921 0.674791
vt 0.513921 0.609055
vt 0.486079 0.674791
vn -1.0000 0.0000 0.0000
vn 0.0000 0.9775 0.2108
vn 1.0000 0.0000 0.0000
vn 0.0000 -0.9775 -0.2111
vn 0.0000 0.9902 0.1394
vn 0.0000 -0.9929 -0.1190
vn 0.0000 0.9926 -0.1211
vn 0.0000 -0.9991 -0.0429
vn -0.9997 0.0188 0.0133
vn 0.0000 0.9732 0.2299
vn 0.9997 0.0188 0.0133
vn 0.0000 -0.9911 -0.1331
vn 0.0000 0.9273 0.3743
vn 0.0000 -0.9691 -0.2467
vn 0.0000 0.9414 0.3373
vn 0.0000 -0.9519 -0.3063
vn -0.9986 0.0515 0.0086
vn 0.0000 1.0000 0.0098
vn 0.9986 0.0515 0.0086
vn 0.0000 -1.0000 0.0094
vn -0.9991 0.0362 -0.0201
vn 0.0000 0.9856 -0.1693
vn 0.9991 0.0362 -0.0201
vn 0.0000 -0.9999 0.0125
vn 0.0000 -0.4500 -0.8930
vn 0.0000 -0.9871 0.1599
vn 0.9919 -0.1257 0.0186
vn -0.9919 -0.1257 0.0186
vn 0.0000 -0.3545 -0.9350
vn -0.0000 -0.9160 -0.4011
vn 0.0000 -0.1229 -0.9924
vn 0.0000 -0.5291 -0.8486
vn 0.0000 0.7822 0.6230
vn -0.9927 -0.1108 0.0472
vn 0.0000 0.6379 -0.7701
vn 0.0000 -0.9209 0.3899
vn 0.0000 0.9909 0.1345
vn 0.0000 -0.7483 0.6634
vn -0.9944 -0.0788 0.0702
vn 0.0000 0.0263 -0.9997
vn 0.9944 -0.0788 0.0702
vn 0.0000 -0.9998 0.0204
vn 0.9921 -0.1257 0.0027
vn 0.0000 0.1876 -0.9822
vn 0.9917 -0.1279 -0.0144
vn 0.0000 -0.9929 -0.1186
vn -0.0000 0.7423 0.6701
vn -0.9916 -0.1252 -0.0319
vn 0.9916 -0.1252 -0.0319
vn 0.0000 0.5310 -0.8473
vn 0.0000 -0.9696 -0.2448
vn -0.0000 -0.8132 0.5820
vn 0.0000 -0.1545 0.9880
vn 0.0000 -0.8556 0.5177
vn -0.0000 -0.8518 0.5239
vn 0.0000 -0.8519 0.5238
vn 0.0000 0.9574 0.2888
vn 0.0000 -0.9992 0.0387
vn 0.0000 0.9702 -0.2422
vn -0.9921 -0.1257 0.0027
vn -0.9917 -0.1279 -0.0144
vn 0.9927 -0.1108 0.0472
vn 0.0000 0.7868 0.6172
vn 0.0000 0.5287 0.8488
vn 0.0000 -0.1956 -0.9807
vn 0.0000 0.1958 0.9806
vn 0.0000 -0.0734 -0.9973
vn 0.0000 0.0734 0.9973
vn 0.0000 0.1871 -0.9823
vn 0.0000 0.9920 -0.1259
usemtl None
s 1
f 1/1/1 2/2/1 3/3/1 4/4/1
f 4/4/2 3/3/2 5/5/2 6/6/2
f 6/7/3 5/8/3 7/9/3 8/10/3
f 8/10/4 7/9/4 2/11/4 1/12/4
f 9/13/1 10/14/1 11/15/1 12/16/1
f 12/17/5 11/18/5 13/19/5 14/20/5
f 14/20/3 13/19/3 15/21/3 16/22/3
f 16/23/6 15/24/6 10/14/6 9/13/6
f 17/25/1 18/26/1 19/27/1 20/28/1
f 20/28/7 19/27/7 21/29/7 22/30/7
f 22/30/3 21/29/3 23/31/3 24/32/3
f 24/32/8 23/31/8 18/26/8 17/25/8
f 25/33/9 26/34/9 27/35/9 28/36/9
f 28/36/10 27/35/10 29/37/10 30/38/10
f 30/38/11 29/37/11 31/39/11 32/40/11
f 32/40/12 31/39/12 26/34/12 25/33/12
f 33/41/1 34/42/1 35/43/1 36/44/1
f 36/44/13 35/43/13 37/45/13 38/46/13
f 38/46/3 37/45/3 39/47/3 40/48/3
f 40/48/14 39/47/14 34/42/14 33/41/14
f 41/49/1 42/50/1 43/51/1 44/52/1
f 44/52/15 43/51/15 45/53/15 46/54/15
f 46/55/3 45/56/3 47/57/3 48/58/3
f 48/58/16 47/57/16 42/59/16 41/60/16
f 49/61/17 50/62/17 51/63/17 52/64/17
f 52/64/18 51/63/18 53/65/18 54/66/18
f 54/66/19 53/65/19 55/67/19 56/68/19
f 56/69/20 55/70/20 50/71/20 49/72/20
f 57/73/21 58/74/21 59/75/21 60/76/21
f 60/76/22 59/75/22 61/77/22 62/78/22
f 62/78/23 61/77/23 63/79/23 64/80/23
f 64/81/24 63/82/24 58/83/24 57/84/24
f 60/76/25 62/78/25 64/80/25 57/73/25
f 65/85/26 66/86/26 67/87/26 68/88/26
f 69/89/27 70/90/27 66/91/27 65/92/27
f 71/93/28 72/94/28 68/95/28 67/96/28
f 73/97/29 74/98/29 75/99/29 76/100/29
f 77/101/3 78/102/3 75/103/3 74/104/3
f 79/105/1 80/106/1 73/107/1 76/108/1
f 81/109/30 82/110/30 83/111/30 84/112/30
f 85/113/1 86/114/1 83/115/1 82/116/1
f 86/117/31 87/118/31 84/119/31 83/120/31
f 87/121/3 88/122/3 81/123/3 84/124/3
f 89/125/32 90/126/32 91/127/32 92/128/32
f 93/129/33 94/130/33 95/131/33 96/132/33
f 92/133/34 91/134/34 95/135/34 94/136/34
f 97/137/35 98/138/35 99/139/35 100/140/35
f 101/141/3 97/142/3 100/143/3 102/144/3
f 91/127/36 90/126/36 96/145/36 95/146/36
f 103/147/37 104/148/37 105/149/37 106/150/37
f 107/151/38 108/152/38 106/153/38 105/154/38
f 109/155/39 107/156/39 105/157/39 104/158/39
f 110/159/40 109/160/40 104/161/40 103/162/40
f 108/163/41 110/164/41 103/165/41 106/166/41
f 111/167/1 112/168/1 113/169/1 114/170/1
f 115/171/42 116/172/42 117/173/42 118/174/42
f 119/175/43 115/176/43 118/177/43 120/178/43
f 121/179/44 122/180/44 123/181/44 124/182/44
f 125/183/45 126/184/45 123/185/45 122/186/45
f 127/187/1 128/188/1 129/189/1 130/190/1
f 126/191/46 131/192/46 124/193/46 123/194/46
f 132/195/47 133/196/47 134/197/47 135/198/47
f 136/199/48 137/200/48 134/201/48 133/202/48
f 138/203/49 139/204/49 132/205/49 135/206/49
f 139/207/50 136/208/50 133/209/50 132/210/50
f 139/211/51 138/212/51 137/213/51 136/214/51
f 140/215/52 141/216/52 142/217/52 143/218/52
f 144/219/1 145/220/1 142/221/1 141/222/1
f 146/223/3 147/224/3 140/225/3 143/226/3
f 147/227/53 144/228/53 141/229/53 140/230/53
f 148/231/54 149/232/54 150/233/55 151/234/55
f 152/235/3 153/236/3 148/237/3 151/238/3
f 154/239/56 152/240/56 151/234/55 150/233/55
f 155/241/1 154/242/1 150/243/1 149/244/1
f 156/245/57 157/246/57 158/247/57 159/248/57
f 160/249/3 161/250/3 156/245/3 159/248/3
f 162/251/1 163/252/1 158/247/1 157/246/1
f 163/252/58 160/249/58 159/248/58 158/247/58
f 161/250/59 162/251/59 157/246/59 156/245/59
f 116/253/60 164/254/60 165/255/60 117/256/60
f 131/257/61 166/258/61 121/259/61 124/260/61
f 90/261/62 89/262/62 93/263/62 96/264/62
f 100/265/63 99/266/63 167/267/63 102/268/63
f 98/269/1 168/270/1 167/271/1 99/272/1
f 169/273/64 170/274/64 171/275/64 172/276/64
f 173/277/3 169/278/3 172/279/3 174/280/3
f 175/281/65 173/282/65 174/283/65 176/284/65
f 170/285/1 175/286/1 176/287/1 171/288/1
f 112/289/66 111/290/66 177/291/66 178/292/66
f 113/293/67 179/294/67 180/295/67 114/296/67
f 178/297/3 177/298/3 180/299/3 179/300/3
f 128/301/68 127/302/68 181/303/68 182/304/68
f 129/305/69 183/306/69 184/307/69 130/308/69
f 182/309/3 181/310/3 184/311/3 183/312/3
f 77/313/70 74/314/70 80/315/70
l 85 88
l 79 78
